<svg version="1.1" width="80" height="80" viewBox="0 0 80 80" xmlns="http://www.w3.org/2000/svg" xmlns:xlink="http://www.w3.org/1999/xlink" overflow="hidden"><g id="Icon-Architecture/64/Arch_Amazon-CloudFront_64" stroke="none" stroke-width="1" fill="none" fill-rule="evenodd"><g id="Icon-Architecture-BG/64/Networking-Content-Delivery" fill="#8C4FFF"><rect x="0" y="0" width="80" height="80" id="Rectangle"/></g><path d=" M 55.122 52.123 C 55.122 50.469 53.776 49.123 52.122 49.123 C 50.468 49.123 49.122 50.469 49.122 52.123 C 49.122 53.777 50.468 55.123 52.122 55.123 C 53.776 55.123 55.122 53.777 55.122 52.123 L 55.122 52.123 Z M 57.122 52.123 C 57.122 54.88 54.879 57.123 52.122 57.123 C 49.365 57.123 47.122 54.88 47.122 52.123 C 47.122 49.366 49.365 47.123 52.122 47.123 C 54.879 47.123 57.122 49.366 57.122 52.123 L 57.122 52.123 Z M 30.392 37.692 C 30.392 36.038 29.046 34.692 27.392 34.692 C 25.737 34.692 24.392 36.038 24.392 37.692 C 24.392 39.346 25.737 40.692 27.392 40.692 C 29.046 40.692 30.392 39.346 30.392 37.692 L 30.392 37.692 Z M 32.392 37.692 C 32.392 40.449 30.148 42.692 27.392 42.692 C 24.635 42.692 22.392 40.449 22.392 37.692 C 22.392 34.935 24.635 32.692 27.392 32.692 C 30.148 32.692 32.392 34.935 32.392 37.692 L 32.392 37.692 Z M 39.73 22.007 C 39.73 23.661 41.076 25.007 42.73 25.007 C 44.385 25.007 45.73 23.661 45.73 22.007 C 45.73 20.352 44.385 19.007 42.73 19.007 C 41.076 19.007 39.73 20.352 39.73 22.007 L 39.73 22.007 Z M 37.73 22.007 C 37.73 19.25 39.974 17.007 42.73 17.007 C 45.487 17.007 47.73 19.25 47.73 22.007 C 47.73 24.764 45.487 27.007 42.73 27.007 C 39.974 27.007 37.73 24.764 37.73 22.007 L 37.73 22.007 Z M 66 40 C 66 30.727 61.028 22.148 53.012 17.509 C 51.575 17.799 50.185 18.196 48.451 18.823 L 47.771 16.942 C 48.676 16.616 49.486 16.352 50.266 16.126 C 47.046 14.737 43.548 14 40 14 C 38.311 14 36.649 14.175 35.025 14.492 C 36.201 15.18 37.244 15.866 38.257 16.634 L 37.048 18.227 C 35.62 17.145 34.14 16.228 32.197 15.21 C 22.378 18.298 15.306 26.958 14.183 37.128 C 16.242 36.711 18.219 36.484 20.414 36.43 L 20.463 38.429 C 18.163 38.486 16.187 38.73 14.027 39.205 C 14.018 39.47 14 39.738 14 40 C 14 48.658 18.283 56.636 25.327 61.447 C 24.074 57.716 23.45 54.19 23.45 50.746 C 23.45 48.782 23.788 47.169 24.145 45.462 C 24.228 45.067 24.312 44.665 24.394 44.248 L 26.357 44.635 C 26.273 45.059 26.187 45.47 26.103 45.873 C 25.753 47.545 25.45 48.989 25.45 50.746 C 25.45 54.654 26.308 58.695 28.054 63.083 C 31.773 65.014 35.789 66 40 66 C 42.756 66 45.446 65.56 48.012 64.714 C 49.019 62.727 49.766 60.852 50.39 58.699 L 52.311 59.256 C 51.855 60.826 51.332 62.253 50.709 63.677 C 52.323 62.951 53.85 62.053 55.283 61.005 C 54.938 60.159 54.568 59.318 54.159 58.499 L 55.948 57.604 C 56.296 58.3 56.615 59.012 56.92 59.728 C 62.705 54.775 66 47.66 66 40 L 66 40 Z M 68 40 C 68 48.727 64.034 56.799 57.121 62.149 C 55.409 63.479 53.552 64.583 51.589 65.472 C 50.756 65.85 49.908 66.2 49.036 66.494 C 46.156 67.493 43.113 68 40 68 C 35.4 68 30.832 66.854 26.788 64.686 C 17.667 59.806 12 50.347 12 40 C 12 39.314 12.018 38.792 12.059 38.309 C 12.74 26.625 20.756 16.512 32.001 13.166 C 34.562 12.393 37.255 12 40 12 C 44.808 12 49.539 13.238 53.684 15.579 C 62.513 20.525 68 29.884 68 40 L 68 40 Z M 37.314 25.463 L 36 23.956 C 33.758 25.912 32.014 27.989 29.977 31.126 L 31.655 32.215 C 33.583 29.244 35.223 27.288 37.314 25.463 L 37.314 25.463 Z M 34.275 38.427 L 33.625 40.318 C 38.218 41.895 42.225 44.411 46.234 48.236 L 47.615 46.789 C 43.389 42.758 39.15 40.101 34.275 38.427 L 34.275 38.427 Z M 47.646 26.668 C 51.398 32.39 53.511 38.671 53.925 45.338 L 51.929 45.462 C 51.536 39.146 49.533 33.192 45.975 27.765 L 47.646 26.668 Z" id="Amazon-CloudFront_Icon_64_Squid" fill="#FFFFFF"/></g></svg>